HIERARCHY
ROOT hip
{
  OFFSET 0.00112043 5.09927 -9.65472
  CHANNELS 6 Xposition Yposition Zposition Zrotation Xrotation Yrotation
  JOINT abdomen
  {
    OFFSET 0 -1.186 -1.5018
    CHANNELS 3 Zrotation Xrotation Yrotation
    JOINT abdomen2
    {
      OFFSET 0 9.964 0.2134
      CHANNELS 3 Zrotation Xrotation Yrotation
      JOINT chest
      {
        OFFSET 0 13.134 -3.2573
        CHANNELS 3 Zrotation Xrotation Yrotation
        JOINT neck
        {
          OFFSET 0 20.686 -1.6905
          CHANNELS 3 Zrotation Xrotation Yrotation
          JOINT head
          {
            OFFSET 0 7.238 -0.1237
            CHANNELS 3 Zrotation Xrotation Yrotation
            End Site
            {
              OFFSET 0 0 0
            }
          }
        }
        JOINT lCollar
        {
          OFFSET 1.7069 20.075 5.0056
          CHANNELS 3 Zrotation Xrotation Yrotation
          JOINT lShldr
          {
            OFFSET 13.6458 -0.047 -4.849
            CHANNELS 3 Zrotation Xrotation Yrotation
            JOINT lForeArm
            {
              OFFSET 28.3255 -0.9759 2.2888
              CHANNELS 3 Zrotation Xrotation Yrotation
              JOINT lHand
              {
                OFFSET 22.1583 -0.53 10.8316
                CHANNELS 3 Zrotation Xrotation Yrotation
                JOINT lThumb1
                {
                  OFFSET 0.786 0.112 2.5817
                  CHANNELS 3 Zrotation Xrotation Yrotation
                  JOINT lThumb2
                  {
                    OFFSET 0.3601 -0.878 4.2331
                    CHANNELS 3 Zrotation Xrotation Yrotation
                    JOINT lThumb2_End
                    {
                      OFFSET 1.8127 -1.216 2.2227
                      CHANNELS 3 Zrotation Xrotation Yrotation
                      End Site
                      {
                        OFFSET 0.0181 -0.0122 0.0222
                      }
                    }
                  }
                }
                JOINT lCarpal1
                {
                  OFFSET 0.9571 1.114 1.7695
                  CHANNELS 3 Zrotation Xrotation Yrotation
                  JOINT lIndex1
                  {
                    OFFSET 4.1246 0.487 4.1451
                    CHANNELS 3 Zrotation Xrotation Yrotation
                    JOINT lIndex2
                    {
                      OFFSET 3.4052 -1.454 2.7682
                      CHANNELS 3 Zrotation Xrotation Yrotation
                      JOINT lIndex2_End
                      {
                        OFFSET 1.4531 -1.795 1.2713
                        CHANNELS 3 Zrotation Xrotation Yrotation
                        End Site
                        {
                          OFFSET 0.0145 -0.0179 0.0127
                        }
                      }
                    }
                  }
                  JOINT lMid1
                  {
                    OFFSET 5.6954 0.21 2.1184
                    CHANNELS 3 Zrotation Xrotation Yrotation
                    JOINT lMid2
                    {
                      OFFSET 3.9766 -1.54 2.3863
                      CHANNELS 3 Zrotation Xrotation Yrotation
                      JOINT lMid2_End
                      {
                        OFFSET 1.4042 -1.926 1.125
                        CHANNELS 3 Zrotation Xrotation Yrotation
                        End Site
                        {
                          OFFSET 0.014 -0.0193 0.0113
                        }
                      }
                    }
                  }
                }
                JOINT lCarpal2
                {
                  OFFSET 2.0956 0.66 -0.3894
                  CHANNELS 3 Zrotation Xrotation Yrotation
                  JOINT lRing1
                  {
                    OFFSET 5.0395 -0.09 2.4971
                    CHANNELS 3 Zrotation Xrotation Yrotation
                    JOINT lRing2
                    {
                      OFFSET 3.7921 -1.552 1.4806
                      CHANNELS 3 Zrotation Xrotation Yrotation
                      JOINT lRing2_End
                      {
                        OFFSET 1.4655 -1.808 0.9609
                        CHANNELS 3 Zrotation Xrotation Yrotation
                        End Site
                        {
                          OFFSET 0.0147 -0.0181 0.0096
                        }
                      }
                    }
                  }
                  JOINT lPinky1
                  {
                    OFFSET 4.9141 -1.269 0.3591
                    CHANNELS 3 Zrotation Xrotation Yrotation
                    JOINT lPinky2
                    {
                      OFFSET 3.1477 -1.685 0.8462
                      CHANNELS 3 Zrotation Xrotation Yrotation
                      JOINT lPinky2_End
                      {
                        OFFSET 0.8055 -1.585 0.7955
                        CHANNELS 3 Zrotation Xrotation Yrotation
                        End Site
                        {
                          OFFSET 0.0081 -0.0158 0.008
                        }
                      }
                    }
                  }
                }
              }
            }
          }
        }
        JOINT rCollar
        {
          OFFSET -1.7069 20.075 5.0056
          CHANNELS 3 Zrotation Xrotation Yrotation
          JOINT rShldr
          {
            OFFSET -13.6458 -0.047 -4.849
            CHANNELS 3 Zrotation Xrotation Yrotation
            JOINT rForeArm
            {
              OFFSET -28.3255 -0.9759 2.2888
              CHANNELS 3 Zrotation Xrotation Yrotation
              JOINT rHand
              {
                OFFSET -22.1583 -0.53 10.8316
                CHANNELS 3 Zrotation Xrotation Yrotation
                JOINT rThumb1
                {
                  OFFSET -0.786 0.112 2.5817
                  CHANNELS 3 Zrotation Xrotation Yrotation
                  JOINT rThumb2
                  {
                    OFFSET -0.3601 -0.878 4.2331
                    CHANNELS 3 Zrotation Xrotation Yrotation
                    JOINT rThumb2_End
                    {
                      OFFSET -1.8127 -1.216 2.2227
                      CHANNELS 3 Zrotation Xrotation Yrotation
                      End Site
                      {
                        OFFSET -0.0181 -0.0122 0.0222
                      }
                    }
                  }
                }
                JOINT rCarpal1
                {
                  OFFSET -0.9571 1.114 1.7695
                  CHANNELS 3 Zrotation Xrotation Yrotation
                  JOINT rIndex1
                  {
                    OFFSET -4.1246 0.487 4.1451
                    CHANNELS 3 Zrotation Xrotation Yrotation
                    JOINT rIndex2
                    {
                      OFFSET -3.4052 -1.454 2.7682
                      CHANNELS 3 Zrotation Xrotation Yrotation
                      JOINT rIndex2_End
                      {
                        OFFSET -1.4531 -1.795 1.2713
                        CHANNELS 3 Zrotation Xrotation Yrotation
                        End Site
                        {
                          OFFSET -0.0145 -0.018 0.0127
                        }
                      }
                    }
                  }
                  JOINT rMid1
                  {
                    OFFSET -5.6954 0.21 2.1184
                    CHANNELS 3 Zrotation Xrotation Yrotation
                    JOINT rMid2
                    {
                      OFFSET -3.9766 -1.54 2.3863
                      CHANNELS 3 Zrotation Xrotation Yrotation
                      JOINT rMid2_End
                      {
                        OFFSET -1.4042 -1.926 1.125
                        CHANNELS 3 Zrotation Xrotation Yrotation
                        End Site
                        {
                          OFFSET -0.014 -0.0193 0.0113
                        }
                      }
                    }
                  }
                }
                JOINT rCarpal2
                {
                  OFFSET -2.0956 0.66 -0.3894
                  CHANNELS 3 Zrotation Xrotation Yrotation
                  JOINT rRing1
                  {
                    OFFSET -5.0395 -0.09 2.4971
                    CHANNELS 3 Zrotation Xrotation Yrotation
                    JOINT rRing2
                    {
                      OFFSET -3.7921 -1.552 1.4806
                      CHANNELS 3 Zrotation Xrotation Yrotation
                      JOINT rRing2_End
                      {
                        OFFSET -1.4655 -1.808 0.9609
                        CHANNELS 3 Zrotation Xrotation Yrotation
                        End Site
                        {
                          OFFSET -0.0147 -0.0181 0.0096
                        }
                      }
                    }
                  }
                  JOINT rPinky1
                  {
                    OFFSET -4.9141 -1.269 0.3592
                    CHANNELS 3 Zrotation Xrotation Yrotation
                    JOINT rPinky2
                    {
                      OFFSET -3.1477 -1.685 0.8462
                      CHANNELS 3 Zrotation Xrotation Yrotation
                      JOINT rPinky2_End
                      {
                        OFFSET -0.8055 -1.585 0.7955
                        CHANNELS 3 Zrotation Xrotation Yrotation
                        End Site
                        {
                          OFFSET -0.0081 -0.0158 0.008
                        }
                      }
                    }
                  }
                }
              }
            }
          }
        }
      }
    }
  }
  JOINT lThigh
  {
    OFFSET 8.367 -8.2066 0.5982
    CHANNELS 3 Zrotation Xrotation Yrotation
    JOINT lShin
    {
      OFFSET 2.1923 -43.463 -0.4932
      CHANNELS 3 Zrotation Xrotation Yrotation
      JOINT lFoot
      {
        OFFSET 0.7333 -45.8593 -2.6451
        CHANNELS 3 Zrotation Xrotation Yrotation
        End Site
        {
          OFFSET 2.6618 -4.2699 12.3931
        }
      }
    }
  }
  JOINT rThigh
  {
    OFFSET -8.367 -8.2066 0.5982
    CHANNELS 3 Zrotation Xrotation Yrotation
    JOINT rShin
    {
      OFFSET -2.1923 -43.463 -0.4931
      CHANNELS 3 Zrotation Xrotation Yrotation
      JOINT rFoot
      {
        OFFSET -0.7333 -45.8593 -2.6451
        CHANNELS 3 Zrotation Xrotation Yrotation
        End Site
        {
          OFFSET -2.6618 -4.2699 12.3931
        }
      }
    }
  }
}
MOTION
Frames:	4
Frame Time:	0.0333333
0 91.7903 2.51682 0 0 -0 0 0 -0 0 0 -0 0 0 -0 0 0 -0 0 0 -0 0 0 -0 1.66051 0.0835086 5.75766 -0.0175111 0.895433 15.7816 7.95139e-016 -1.98785e-016 -0 5.46658e-016 -3.97569e-016 -0 5.96354e-016 0 -0 3.97569e-016 1.98785e-016 9.54166e-015 1.49089e-016 -3.97569e-016 -0 6.4605e-016 0 3.18055e-015 5.96354e-016 0 3.18055e-015 8.94531e-016 -1.98785e-016 6.36111e-015 6.4605e-016 0 3.18055e-015 5.96354e-016 0 3.18055e-015 8.94531e-016 -1.98785e-016 6.36111e-015 1.49089e-016 -3.97569e-016 -0 6.4605e-016 0 3.18055e-015 5.96354e-016 0 3.18055e-015 8.94531e-016 -1.98785e-016 6.36111e-015 6.4605e-016 0 3.18055e-015 5.96354e-016 0 3.18055e-015 8.94531e-016 -1.98785e-016 6.36111e-015 0 0 -0 -1.4496 0.0636048 -5.0245 -1.74811 1.20616 -16.8394 -1.19271e-015 1.98785e-016 -3.18055e-015 -3.97569e-016 1.98785e-016 -3.18055e-015 -2.98177e-016 1.98785e-016 -3.18055e-015 -2.98177e-016 3.97569e-016 -0 4.96962e-016 0 -6.36111e-015 -9.93923e-017 3.97569e-016 -0 -8.94531e-016 5.96354e-016 -0 -3.97569e-016 3.97569e-016 -0 -9.93923e-017 3.97569e-016 -0 -8.94531e-016 5.96354e-016 -0 -3.97569e-016 3.97569e-016 -0 4.96962e-016 0 -6.36111e-015 -9.93923e-017 3.97569e-016 -0 -8.94531e-016 5.96354e-016 -0 -3.97569e-016 3.97569e-016 -0 -9.93923e-017 3.97569e-016 -0 -8.94531e-016 5.96354e-016 -0 -3.97569e-016 3.97569e-016 -0 -4.66111 -0.998717 0.12318 0.00986924 1.54847 0.176523 4.65186 -0.572283 -0.254274 4.66111 -0.998765 -0.123176 -0.00986867 1.54869 -0.176537 -4.65186 -0.572453 0.25427 
-0.00532285 -5.75132 -11.8036 -180 -83.3313 -180 -0.102992 5.09206 -0.160289 -0.192765 10.1844 -0.313214 -0.192765 10.1844 -0.313214 -0.0675202 19.2681 0.01178 0.011635 9.62104 0.0117391 -9.6931 6.44383 2.26162 -68.8629 5.47078 -21.8036 -12.1229 -0.423396 -50.64 -4.39502 26.8075 0.924387 -6.78837e-007 4.61443e-007 7.56077e-008 -3.26814e-007 -6.60528e-007 4.20875e-007 1.0517e-006 1.22206e-006 2.5665e-006 4.77083e-015 -4.77083e-015 -6.36111e-015 -6.78837e-007 4.61443e-007 7.56077e-008 -3.26814e-007 -6.60528e-007 4.20875e-007 1.0517e-006 1.22206e-006 2.5665e-006 -6.78837e-007 4.61443e-007 7.56077e-008 -3.26814e-007 -6.60528e-007 4.20875e-007 1.0517e-006 1.22206e-006 2.5665e-006 4.77083e-015 -4.77083e-015 -6.36111e-015 -6.78837e-007 4.61443e-007 7.56077e-008 -3.26814e-007 -6.60528e-007 4.20875e-007 1.0517e-006 1.22206e-006 2.5665e-006 -6.78837e-007 4.61443e-007 7.56077e-008 -3.26814e-007 -6.60528e-007 4.20875e-007 1.0517e-006 1.22206e-006 2.5665e-006 9.69871 6.34083 -2.16021 69.0429 5.68555 22.4962 11.0603 -1.95576 49.8649 4.08178 27.4932 -0.65452 -3.38656e-007 6.44407e-007 4.37458e-007 -0 -3.18055e-015 -0 -3.38656e-007 6.44407e-007 4.37458e-007 -6.36111e-015 0 6.36111e-015 -3.38656e-007 6.44407e-007 4.37458e-007 1.59028e-015 -6.36111e-015 -3.18055e-015 -3.38656e-007 6.44407e-007 4.37458e-007 -3.38656e-007 6.44407e-007 4.37458e-007 1.59028e-015 -6.36111e-015 -3.18055e-015 -3.38656e-007 6.44407e-007 4.37458e-007 -6.36111e-015 0 6.36111e-015 -3.38656e-007 6.44407e-007 4.37458e-007 1.59028e-015 -6.36111e-015 -3.18055e-015 -3.38656e-007 6.44407e-007 4.37458e-007 -3.38656e-007 6.44407e-007 4.37458e-007 1.59028e-015 -6.36111e-015 -3.18055e-015 -3.38656e-007 6.44407e-007 4.37458e-007 -7.00427 -1.01372 -11.2505 2.06504 11.581 0.51854 4.82678 15.9814 13.4323 7.03985 -1.3992 7.91069 -2.81501 11.9007 -0.348086 -5.2622 16.1631 -10.1523 
-0.00380485 1.6098 -11.5476 -180 -89.9981 -180 -0.0969951 4.86645 -0.148923 -0.182233 9.73311 -0.291128 -0.182234 9.73312 -0.291128 -0.431806 17.6083 0.0742107 0.0758565 8.75655 0.0753954 -9.03027 5.52967 1.75091 -63.7686 4.93825 -19.8633 -11.0773 -0.682433 -45.887 -3.6631 24.8303 -0.452443 3.97252e-031 -2.38542e-015 9.54166e-015 -1.58625e-006 -2.53325e-006 1.57217e-006 -1.59028e-015 8.74653e-015 3.18055e-015 5.29669e-031 -3.18055e-015 9.54166e-015 1.59028e-015 -7.95139e-015 1.59028e-014 -1.58625e-006 -2.53325e-006 1.57217e-006 -1.59028e-015 -3.18055e-015 3.18055e-015 1.59028e-015 -7.95139e-015 1.59028e-014 -1.58625e-006 -2.53325e-006 1.57217e-006 -1.59028e-015 -3.18055e-015 3.18055e-015 5.29669e-031 -3.18055e-015 9.54166e-015 1.59028e-015 -7.95139e-015 1.59028e-014 -1.58625e-006 -2.53325e-006 1.57217e-006 -1.59028e-015 -3.18055e-015 3.18055e-015 1.59028e-015 -7.95139e-015 1.59028e-014 -1.58625e-006 -2.53325e-006 1.57217e-006 -1.59028e-015 -3.18055e-015 3.18055e-015 9.29808 5.60117 -1.50176 63.9054 5.10268 20.5883 9.86836 -2.18398 44.9859 3.11036 25.5454 0.861386 1.91902e-006 -9.42187e-007 4.20782e-006 3.12361e-006 -2.5924e-006 3.18294e-006 -6.36111e-015 -1.59028e-015 1.27222e-014 -3.18055e-015 -3.18055e-015 -3.18055e-015 1.91902e-006 -9.42187e-007 4.20782e-006 3.12361e-006 -2.5924e-006 3.18294e-006 -6.36111e-015 1.59028e-015 9.54166e-015 1.91902e-006 -9.42187e-007 4.20782e-006 3.12361e-006 -2.5924e-006 3.18294e-006 -6.36111e-015 1.59028e-015 9.54166e-015 -3.18055e-015 -3.18055e-015 -3.18055e-015 1.91902e-006 -9.42187e-007 4.20782e-006 3.12361e-006 -2.5924e-006 3.18294e-006 -6.36111e-015 1.59028e-015 9.54166e-015 1.91902e-006 -9.42187e-007 4.20782e-006 3.12361e-006 -2.5924e-006 3.18294e-006 -6.36111e-015 1.59028e-015 9.54166e-015 -6.84124 -1.06257 -10.4707 1.91572 10.9362 0.507214 4.96896 15.1235 12.0917 6.86737 -1.38766 7.35906 -2.61018 11.178 -0.337223 -5.40899 15.0664 -9.3847 
-0.00359542 1.61009 -11.5503 -180 -89.9981 -180 -0.0974614 4.98445 -0.14884 -0.182912 9.9691 -0.290793 -0.182912 9.96914 -0.290793 -0.776502 17.2977 0.131311 0.13676 8.56856 0.135933 -9.05347 5.08958 1.42069 -63.3847 4.70195 -19.8375 -10.9785 -0.906206 -45.7194 -3.27955 24.7175 -1.78179 -4.77083e-015 7.15625e-015 3.18055e-015 -1.57324e-006 -2.53685e-006 1.58591e-006 3.18055e-015 -1.35174e-014 3.18055e-015 -6.36111e-015 3.97569e-015 3.18055e-015 3.18055e-015 -3.97569e-015 -0 -1.57324e-006 -2.53685e-006 1.58591e-006 -0 -1.11319e-014 -0 3.18055e-015 -3.97569e-015 -0 -1.57324e-006 -2.53685e-006 1.58591e-006 -0 -1.11319e-014 -0 -6.36111e-015 3.97569e-015 3.18055e-015 3.18055e-015 -3.97569e-015 -0 -1.57324e-006 -2.53685e-006 1.58591e-006 -0 -1.11319e-014 -0 3.18055e-015 -3.97569e-015 -0 -1.57324e-006 -2.53685e-006 1.58591e-006 -0 -1.11319e-014 -0 9.56578 5.31997 -1.02534 63.4739 4.83214 20.5908 9.73643 -2.45313 44.7246 2.47989 25.4994 2.34982 -2.64834e-031 4.77083e-015 3.18055e-015 -2.82263e-006 -2.02711e-006 3.75806e-006 3.53113e-031 3.18055e-015 -6.36111e-015 -1.59028e-015 4.77083e-015 -0 -1.41245e-030 6.36111e-015 1.27222e-014 -2.82263e-006 -2.02711e-006 3.75806e-006 1.76556e-031 1.59028e-015 -6.36111e-015 -1.41245e-030 6.36111e-015 1.27222e-014 -2.82263e-006 -2.02711e-006 3.75806e-006 1.76556e-031 1.59028e-015 -6.36111e-015 -1.59028e-015 4.77083e-015 -0 -1.41245e-030 6.36111e-015 1.27222e-014 -2.82263e-006 -2.02711e-006 3.75806e-006 1.76556e-031 1.59028e-015 -6.36111e-015 -1.41245e-030 6.36111e-015 1.27222e-014 -2.82263e-006 -2.02711e-006 3.75806e-006 1.76556e-031 1.59028e-015 -6.36111e-015 -6.84426 -1.08079 -10.4718 1.91632 10.9665 0.517047 4.88623 15.3245 11.7804 6.86577 -1.37804 7.35853 -2.60994 11.1589 -0.3366 -5.40903 15.0757 -9.38435 
